<?xml version="1.0" encoding="UTF-8" standalone="no"?>
<!-- Created with Inkscape (http://www.inkscape.org/) -->

<svg
   width="16"
   height="15.999999"
   viewBox="0 0 4.2333332 4.233333"
   version="1.1"
   id="svg1"
   xmlns="http://www.w3.org/2000/svg"
   xmlns:svg="http://www.w3.org/2000/svg">
  <defs
     id="defs1" />
  <g
     id="layer1">
    <path
       id="rect1"
       style="fill:#ffffff;fill-opacity:1;stroke:none;stroke-width:0.466676;stroke-linecap:butt;stroke-linejoin:round;stroke-miterlimit:0;stroke-dasharray:none;stroke-opacity:1;paint-order:stroke fill markers"
       d="M 0.33331299,0 C 0.14879159,0 0,0.14879159 0,0.33331299 V 3.9000203 c 0,0.1845214 0.14879159,0.333313 0.33331299,0.333313 H 3.9000203 c 0.1845214,0 0.333313,-0.1487916 0.333313,-0.333313 V 0.33331299 C 4.2333333,0.14879159 4.0845417,0 3.9000203,0 Z M 1.1937256,0.52916667 h 1.8458821 c 0.221586,0 0.3999756,0.17838958 0.3999756,0.39997558 V 1.7166911 c 0,0.221586 -0.1783896,0.3999756 -0.3999756,0.3999756 H 1.1937256 C 0.97213958,2.1166667 0.79375,1.9382771 0.79375,1.7166911 V 0.92914225 c 0,-0.221586 0.17838958,-0.39997558 0.3999756,-0.39997558 z M 0.94361165,2.6458333 H 3.2897217 c 0.0831,0 0.1498616,0.059002 0.1498616,0.1322917 0,0.07329 -0.066762,0.1322917 -0.1498616,0.1322917 H 0.94361165 c -0.0831,0 -0.14986165,-0.059002 -0.14986165,-0.1322917 0,-0.07329 0.0667617,-0.1322917 0.14986165,-0.1322917 z m -0.037207,0.396875 H 2.6654704 c 0.062325,0 0.1126546,0.05033 0.1126546,0.1126547 v 0.039274 c 0,0.062325 -0.05033,0.1126547 -0.1126546,0.1126547 H 0.90640462 C 0.84407962,3.3072917 0.79375,3.2569621 0.79375,3.194637 V 3.155363 c 0,-0.062325 0.0503296,-0.1126547 0.11265465,-0.1126547 z m 0.0222209,0.396875 H 3.0401245 c 0.07479,0 0.1348755,0.059002 0.1348755,0.1322917 0,0.07329 -0.060086,0.1322917 -0.1348755,0.1322917 H 0.92862549 c -0.07479,0 -0.13487549,-0.059002 -0.13487549,-0.1322917 0,-0.07329 0.0600855,-0.1322917 0.13487555,-0.1322917 z" />
  </g>
</svg>
